<svg width="16" height="18" viewBox="0 0 16 18" fill="none" xmlns="http://www.w3.org/2000/svg">
<path d="M13.631 4.13598C13.514 4.07698 13.401 4.01198 13.29 3.94098C12.97 3.73298 12.676 3.48798 12.415 3.21098C11.763 2.47798 11.519 1.73398 11.429 1.21298H11.433C11.358 0.779976 11.389 0.500977 11.394 0.500977H8.421V11.79C8.421 11.942 8.421 12.092 8.415 12.24C8.415 12.258 8.413 12.275 8.412 12.295C8.412 12.303 8.412 12.311 8.41 12.32V12.326C8.346 13.149 7.87 13.886 7.14 14.294C6.765 14.503 6.342 14.613 5.91 14.613C4.526 14.613 3.403 13.503 3.403 12.134C3.403 10.764 4.526 9.65498 5.91 9.65498C6.173 9.65398 6.433 9.69498 6.682 9.77498L6.686 6.80198C5.156 6.60798 3.614 7.05098 2.432 8.02398C1.919 8.46198 1.489 8.98298 1.159 9.56598C1.033 9.77898 0.560001 10.632 0.503001 12.018C0.467001 12.805 0.707001 13.62 0.822001 13.956V13.964C0.894001 14.162 1.173 14.839 1.629 15.409C1.996 15.867 2.43 16.269 2.916 16.602V16.595L2.923 16.602C4.362 17.563 5.958 17.5 5.958 17.5C6.234 17.489 7.159 17.5 8.21 17.011C9.375 16.468 10.038 15.661 10.038 15.661C10.462 15.178 10.799 14.628 11.035 14.034C11.304 13.34 11.394 12.507 11.394 12.174V6.18398C11.43 6.20598 11.91 6.51798 11.91 6.51798C11.91 6.51798 12.602 6.95298 13.681 7.23698C14.456 7.43898 15.499 7.48098 15.499 7.48098V4.58298C15.133 4.62198 14.391 4.50798 13.631 4.13598Z" fill="#808080"/>
</svg>
