<svg width="11" height="10" viewBox="0 0 11 10" fill="none" xmlns="http://www.w3.org/2000/svg">
<path d="M10.3245 5.42449L6.7245 9.02449C6.61178 9.13721 6.45891 9.20053 6.2995 9.20053C6.14009 9.20053 5.98722 9.13721 5.8745 9.02449C5.76178 8.91177 5.69846 8.7589 5.69846 8.59949C5.69846 8.44008 5.76178 8.28721 5.8745 8.17449L8.45 5.59999H1.1C0.94087 5.59999 0.788258 5.53678 0.675736 5.42425C0.563214 5.31173 0.5 5.15912 0.5 4.99999C0.5 4.84086 0.563214 4.68825 0.675736 4.57573C0.788258 4.4632 0.94087 4.39999 1.1 4.39999H8.45L5.8755 1.82399C5.76278 1.71127 5.69946 1.5584 5.69946 1.39899C5.69946 1.23958 5.76278 1.08671 5.8755 0.973989C5.98822 0.861272 6.14109 0.797949 6.3005 0.797949C6.45991 0.797949 6.61278 0.861272 6.7255 0.973989L10.3255 4.57399C10.3814 4.62981 10.4258 4.69613 10.4561 4.76914C10.4863 4.84215 10.5018 4.92042 10.5017 4.99945C10.5016 5.07848 10.4859 5.15671 10.4555 5.22965C10.4251 5.30259 10.3806 5.3688 10.3245 5.42449Z" fill="white"/>
</svg>
